<svg xmlns="http://www.w3.org/2000/svg" xmlns:xlink="http://www.w3.org/1999/xlink" width="500" zoomAndPan="magnify" viewBox="0 0 375 374.999991" height="500" preserveAspectRatio="xMidYMid meet" version="1.0"><defs><g/><clipPath id="7cc887029c"><path d="M 0.394531 0.394531 L 375 0.394531 L 375 375 L 0.394531 375 Z M 0.394531 0.394531 " clip-rule="nonzero"/></clipPath><clipPath id="59c9b6524e"><path d="M 187.699219 0.394531 C 84.253906 0.394531 0.394531 84.253906 0.394531 187.699219 C 0.394531 291.140625 84.253906 375 187.699219 375 C 291.140625 375 375 291.140625 375 187.699219 C 375 84.253906 291.140625 0.394531 187.699219 0.394531 Z M 187.699219 0.394531 " clip-rule="nonzero"/></clipPath><clipPath id="2b1f3847d7"><path d="M 2 64.128906 L 337.128906 64.128906 L 337.128906 295.878906 L 2 295.878906 Z M 2 64.128906 " clip-rule="nonzero"/></clipPath></defs><g clip-path="url(#7cc887029c)"><g clip-path="url(#59c9b6524e)"><path fill="#002f6d" d="M 0.394531 0.394531 L 375 0.394531 L 375 375 L 0.394531 375 Z M 0.394531 0.394531 " fill-opacity="1" fill-rule="nonzero"/></g></g><g clip-path="url(#2b1f3847d7)"><path fill="#ff9202" d="M 725.375 282.667969 C 728.976562 282.667969 731.894531 285.585938 731.894531 289.1875 C 731.894531 292.785156 728.976562 295.707031 725.375 295.707031 L 55.941406 295.707031 C 49.496094 295.707031 43.632812 293.070312 39.394531 288.828125 C 35.152344 284.585938 32.519531 278.726562 32.519531 272.28125 L 32.519531 189.925781 L 20.902344 189.925781 C 16.363281 189.925781 12.628906 188.734375 9.714844 186.765625 C 6.488281 184.582031 4.347656 181.496094 3.273438 177.992188 L 3.265625 177.996094 C 2.269531 174.742188 2.238281 171.152344 3.132812 167.675781 C 4.199219 163.523438 6.59375 159.476562 10.230469 156.339844 L 110.039062 70.300781 C 114.820312 66.1875 121.011719 64.128906 127.140625 64.128906 C 133.269531 64.128906 139.460938 66.1875 144.238281 70.300781 L 211.316406 128.320312 C 214.03125 130.664062 214.324219 134.773438 211.980469 137.484375 C 209.632812 140.199219 205.523438 140.496094 202.8125 138.148438 L 135.734375 80.132812 C 133.4375 78.160156 130.320312 77.167969 127.140625 77.167969 C 123.960938 77.167969 120.835938 78.160156 118.542969 80.132812 L 18.734375 166.171875 C 17.164062 167.527344 16.144531 169.207031 15.714844 170.882812 C 15.414062 172.0625 15.402344 173.207031 15.695312 174.171875 L 15.6875 174.175781 L 15.695312 174.199219 C 15.910156 174.894531 16.34375 175.523438 17 175.960938 C 17.847656 176.539062 19.136719 176.886719 20.902344 176.886719 L 39.035156 176.886719 C 42.636719 176.886719 45.554688 179.804688 45.554688 183.40625 L 45.554688 272.28125 C 45.554688 275.128906 46.730469 277.730469 48.609375 279.613281 C 50.492188 281.496094 53.089844 282.667969 55.941406 282.667969 Z M 725.375 282.667969 " fill-opacity="1" fill-rule="nonzero"/></g><g fill="#ffffff" fill-opacity="1"><g transform="translate(228.071445, 175.118734)"><g><path d="M 18.421875 -6.359375 L 20.15625 -1.40625 C 19.425781 -0.8125 18.515625 -0.34375 17.421875 0 C 16.328125 0.34375 15.085938 0.515625 13.703125 0.515625 C 10.804688 0.515625 8.609375 -0.269531 7.109375 -1.84375 C 5.609375 -3.414062 4.859375 -5.707031 4.859375 -8.71875 L 4.859375 -21.390625 L 0.796875 -21.390625 L 0.796875 -26.71875 L 4.859375 -26.71875 L 4.859375 -31.921875 L 11.5625 -33.015625 L 11.5625 -26.71875 L 19.140625 -26.71875 L 19.140625 -21.390625 L 11.5625 -21.390625 L 11.5625 -9.203125 C 11.5625 -7.878906 11.835938 -6.910156 12.390625 -6.296875 C 12.941406 -5.691406 13.738281 -5.390625 14.78125 -5.390625 C 15.976562 -5.390625 17.019531 -5.710938 17.90625 -6.359375 Z M 18.421875 -6.359375 "/></g></g></g><g fill="#ffffff" fill-opacity="1"><g transform="translate(248.016604, 175.118734)"><g><path d="M 3.84375 0 L 3.84375 -37.40625 L 10.546875 -37.40625 L 10.546875 -23.203125 L 11.0625 -23.109375 C 11.945312 -24.421875 13.035156 -25.429688 14.328125 -26.140625 C 15.617188 -26.847656 17.175781 -27.203125 19 -27.203125 C 24.882812 -27.203125 27.828125 -23.863281 27.828125 -17.1875 L 27.828125 0 L 21.125 0 L 21.125 -16.328125 C 21.125 -18.148438 20.757812 -19.472656 20.03125 -20.296875 C 19.3125 -21.117188 18.1875 -21.53125 16.65625 -21.53125 C 14.78125 -21.53125 13.289062 -20.90625 12.1875 -19.65625 C 11.09375 -18.40625 10.546875 -16.457031 10.546875 -13.8125 L 10.546875 0 Z M 3.84375 0 "/></g></g></g><g fill="#ffffff" fill-opacity="1"><g transform="translate(278.488119, 175.118734)"><g><path d="M 26.375 -11.828125 L 9.21875 -11.828125 C 9.414062 -9.503906 10.078125 -7.8125 11.203125 -6.75 C 12.335938 -5.695312 13.878906 -5.171875 15.828125 -5.171875 C 17.359375 -5.171875 18.597656 -5.457031 19.546875 -6.03125 C 20.503906 -6.601562 21.273438 -7.472656 21.859375 -8.640625 L 22.359375 -8.640625 L 26.8125 -5.78125 C 25.9375 -3.914062 24.617188 -2.398438 22.859375 -1.234375 C 21.109375 -0.0664062 18.765625 0.515625 15.828125 0.515625 C 13.066406 0.515625 10.679688 -0.0078125 8.671875 -1.0625 C 6.660156 -2.113281 5.109375 -3.675781 4.015625 -5.75 C 2.929688 -7.820312 2.390625 -10.347656 2.390625 -13.328125 C 2.390625 -16.367188 2.960938 -18.925781 4.109375 -21 C 5.253906 -23.082031 6.800781 -24.632812 8.75 -25.65625 C 10.707031 -26.6875 12.90625 -27.203125 15.34375 -27.203125 C 19.113281 -27.203125 22.003906 -26.203125 24.015625 -24.203125 C 26.023438 -22.203125 27.03125 -19.265625 27.03125 -15.390625 C 27.03125 -13.984375 26.984375 -12.894531 26.890625 -12.125 Z M 20.625 -16.171875 C 20.550781 -18.203125 20.078125 -19.679688 19.203125 -20.609375 C 18.328125 -21.535156 17.039062 -22 15.34375 -22 C 11.957031 -22 9.960938 -20.054688 9.359375 -16.171875 Z M 20.625 -16.171875 "/></g></g></g><g fill="#ffffff" fill-opacity="1"><g transform="translate(228.071445, 220.118731)"><g><path d="M 26.375 -11.828125 L 9.21875 -11.828125 C 9.414062 -9.503906 10.078125 -7.8125 11.203125 -6.75 C 12.335938 -5.695312 13.878906 -5.171875 15.828125 -5.171875 C 17.359375 -5.171875 18.597656 -5.457031 19.546875 -6.03125 C 20.503906 -6.601562 21.273438 -7.472656 21.859375 -8.640625 L 22.359375 -8.640625 L 26.8125 -5.78125 C 25.9375 -3.914062 24.617188 -2.398438 22.859375 -1.234375 C 21.109375 -0.0664062 18.765625 0.515625 15.828125 0.515625 C 13.066406 0.515625 10.679688 -0.0078125 8.671875 -1.0625 C 6.660156 -2.113281 5.109375 -3.675781 4.015625 -5.75 C 2.929688 -7.820312 2.390625 -10.347656 2.390625 -13.328125 C 2.390625 -16.367188 2.960938 -18.925781 4.109375 -21 C 5.253906 -23.082031 6.800781 -24.632812 8.75 -25.65625 C 10.707031 -26.6875 12.90625 -27.203125 15.34375 -27.203125 C 19.113281 -27.203125 22.003906 -26.203125 24.015625 -24.203125 C 26.023438 -22.203125 27.03125 -19.265625 27.03125 -15.390625 C 27.03125 -13.984375 26.984375 -12.894531 26.890625 -12.125 Z M 20.625 -16.171875 C 20.550781 -18.203125 20.078125 -19.679688 19.203125 -20.609375 C 18.328125 -21.535156 17.039062 -22 15.34375 -22 C 11.957031 -22 9.960938 -20.054688 9.359375 -16.171875 Z M 20.625 -16.171875 "/></g></g></g><g fill="#ffffff" fill-opacity="1"><g transform="translate(256.292501, 220.118731)"><g><path d="M 10.40625 0.515625 C 8.695312 0.515625 7.210938 0.203125 5.953125 -0.421875 C 4.691406 -1.054688 3.722656 -1.984375 3.046875 -3.203125 C 2.367188 -4.421875 2.03125 -5.882812 2.03125 -7.59375 C 2.03125 -9.175781 2.367188 -10.503906 3.046875 -11.578125 C 3.722656 -12.648438 4.769531 -13.53125 6.1875 -14.21875 C 7.613281 -14.90625 9.472656 -15.429688 11.765625 -15.796875 C 13.359375 -16.054688 14.570312 -16.335938 15.40625 -16.640625 C 16.238281 -16.953125 16.796875 -17.300781 17.078125 -17.6875 C 17.367188 -18.070312 17.515625 -18.566406 17.515625 -19.171875 C 17.515625 -20.023438 17.21875 -20.675781 16.625 -21.125 C 16.03125 -21.570312 15.039062 -21.796875 13.65625 -21.796875 C 12.164062 -21.796875 10.75 -21.460938 9.40625 -20.796875 C 8.070312 -20.140625 6.910156 -19.273438 5.921875 -18.203125 L 5.4375 -18.203125 L 2.640625 -22.4375 C 3.992188 -23.9375 5.644531 -25.101562 7.59375 -25.9375 C 9.550781 -26.78125 11.679688 -27.203125 13.984375 -27.203125 C 17.515625 -27.203125 20.070312 -26.453125 21.65625 -24.953125 C 23.238281 -23.453125 24.03125 -21.320312 24.03125 -18.5625 L 24.03125 -6.96875 C 24.03125 -5.769531 24.554688 -5.171875 25.609375 -5.171875 C 26.003906 -5.171875 26.398438 -5.242188 26.796875 -5.390625 L 27.125 -5.296875 L 27.609375 -0.625 C 27.242188 -0.382812 26.726562 -0.1875 26.0625 -0.03125 C 25.40625 0.113281 24.679688 0.1875 23.890625 0.1875 C 22.285156 0.1875 21.035156 -0.113281 20.140625 -0.71875 C 19.242188 -1.332031 18.601562 -2.296875 18.21875 -3.609375 L 17.71875 -3.65625 C 16.40625 -0.875 13.96875 0.515625 10.40625 0.515625 Z M 12.53125 -4.5 C 14.082031 -4.5 15.320312 -5.019531 16.25 -6.0625 C 17.175781 -7.101562 17.640625 -8.550781 17.640625 -10.40625 L 17.640625 -13.109375 L 17.1875 -13.21875 C 16.78125 -12.894531 16.25 -12.625 15.59375 -12.40625 C 14.9375 -12.1875 14 -11.972656 12.78125 -11.765625 C 11.320312 -11.515625 10.273438 -11.09375 9.640625 -10.5 C 9.003906 -9.914062 8.6875 -9.085938 8.6875 -8.015625 C 8.6875 -6.867188 9.023438 -5.992188 9.703125 -5.390625 C 10.378906 -4.796875 11.320312 -4.5 12.53125 -4.5 Z M 12.53125 -4.5 "/></g></g></g><g fill="#ffffff" fill-opacity="1"><g transform="translate(283.642411, 220.118731)"><g><path d="M 12.484375 0.515625 C 10.660156 0.515625 8.988281 0.300781 7.46875 -0.125 C 5.957031 -0.5625 4.664062 -1.15625 3.59375 -1.90625 C 2.519531 -2.65625 1.722656 -3.515625 1.203125 -4.484375 L 4.9375 -8.5 L 5.4375 -8.5 C 6.332031 -7.300781 7.382812 -6.398438 8.59375 -5.796875 C 9.800781 -5.203125 11.113281 -4.90625 12.53125 -4.90625 C 13.84375 -4.90625 14.828125 -5.140625 15.484375 -5.609375 C 16.148438 -6.078125 16.484375 -6.75 16.484375 -7.625 C 16.484375 -8.300781 16.242188 -8.867188 15.765625 -9.328125 C 15.285156 -9.785156 14.515625 -10.144531 13.453125 -10.40625 L 9.921875 -11.25 C 7.273438 -11.882812 5.34375 -12.847656 4.125 -14.140625 C 2.90625 -15.441406 2.296875 -17.09375 2.296875 -19.09375 C 2.296875 -20.757812 2.71875 -22.203125 3.5625 -23.421875 C 4.414062 -24.648438 5.613281 -25.585938 7.15625 -26.234375 C 8.695312 -26.878906 10.488281 -27.203125 12.53125 -27.203125 C 14.9375 -27.203125 16.929688 -26.851562 18.515625 -26.15625 C 20.097656 -25.46875 21.332031 -24.539062 22.21875 -23.375 L 18.640625 -19.5 L 18.15625 -19.5 C 17.40625 -20.34375 16.566406 -20.957031 15.640625 -21.34375 C 14.710938 -21.726562 13.675781 -21.921875 12.53125 -21.921875 C 9.882812 -21.921875 8.5625 -21.097656 8.5625 -19.453125 C 8.5625 -18.765625 8.804688 -18.203125 9.296875 -17.765625 C 9.796875 -17.328125 10.664062 -16.972656 11.90625 -16.703125 L 15.203125 -15.96875 C 17.910156 -15.382812 19.890625 -14.453125 21.140625 -13.171875 C 22.390625 -11.890625 23.015625 -10.171875 23.015625 -8.015625 C 23.015625 -6.316406 22.59375 -4.820312 21.75 -3.53125 C 20.914062 -2.238281 19.707031 -1.238281 18.125 -0.53125 C 16.539062 0.164062 14.660156 0.515625 12.484375 0.515625 Z M 12.484375 0.515625 "/></g></g></g><g fill="#ffffff" fill-opacity="1"><g transform="translate(307.459333, 220.118731)"><g><path d="M 26.375 -11.828125 L 9.21875 -11.828125 C 9.414062 -9.503906 10.078125 -7.8125 11.203125 -6.75 C 12.335938 -5.695312 13.878906 -5.171875 15.828125 -5.171875 C 17.359375 -5.171875 18.597656 -5.457031 19.546875 -6.03125 C 20.503906 -6.601562 21.273438 -7.472656 21.859375 -8.640625 L 22.359375 -8.640625 L 26.8125 -5.78125 C 25.9375 -3.914062 24.617188 -2.398438 22.859375 -1.234375 C 21.109375 -0.0664062 18.765625 0.515625 15.828125 0.515625 C 13.066406 0.515625 10.679688 -0.0078125 8.671875 -1.0625 C 6.660156 -2.113281 5.109375 -3.675781 4.015625 -5.75 C 2.929688 -7.820312 2.390625 -10.347656 2.390625 -13.328125 C 2.390625 -16.367188 2.960938 -18.925781 4.109375 -21 C 5.253906 -23.082031 6.800781 -24.632812 8.75 -25.65625 C 10.707031 -26.6875 12.90625 -27.203125 15.34375 -27.203125 C 19.113281 -27.203125 22.003906 -26.203125 24.015625 -24.203125 C 26.023438 -22.203125 27.03125 -19.265625 27.03125 -15.390625 C 27.03125 -13.984375 26.984375 -12.894531 26.890625 -12.125 Z M 20.625 -16.171875 C 20.550781 -18.203125 20.078125 -19.679688 19.203125 -20.609375 C 18.328125 -21.535156 17.039062 -22 15.34375 -22 C 11.957031 -22 9.960938 -20.054688 9.359375 -16.171875 Z M 20.625 -16.171875 "/></g></g></g><g fill="#ffffff" fill-opacity="1"><g transform="translate(228.071445, 265.118728)"><g><path d="M 3.84375 0 L 3.84375 -26.6875 L 10.359375 -26.6875 L 10.359375 -22.71875 L 10.859375 -22.625 C 11.503906 -24.113281 12.351562 -25.203125 13.40625 -25.890625 C 14.457031 -26.585938 15.734375 -26.9375 17.234375 -26.9375 C 18.742188 -26.9375 19.894531 -26.675781 20.6875 -26.15625 L 19.546875 -20.375 L 19.046875 -20.28125 C 18.609375 -20.457031 18.1875 -20.582031 17.78125 -20.65625 C 17.382812 -20.738281 16.894531 -20.78125 16.3125 -20.78125 C 14.4375 -20.78125 13.003906 -20.125 12.015625 -18.8125 C 11.035156 -17.5 10.546875 -15.390625 10.546875 -12.484375 L 10.546875 0 Z M 3.84375 0 "/></g></g></g><g fill="#ffffff" fill-opacity="1"><g transform="translate(248.210192, 265.118728)"><g><path d="M 26.375 -11.828125 L 9.21875 -11.828125 C 9.414062 -9.503906 10.078125 -7.8125 11.203125 -6.75 C 12.335938 -5.695312 13.878906 -5.171875 15.828125 -5.171875 C 17.359375 -5.171875 18.597656 -5.457031 19.546875 -6.03125 C 20.503906 -6.601562 21.273438 -7.472656 21.859375 -8.640625 L 22.359375 -8.640625 L 26.8125 -5.78125 C 25.9375 -3.914062 24.617188 -2.398438 22.859375 -1.234375 C 21.109375 -0.0664062 18.765625 0.515625 15.828125 0.515625 C 13.066406 0.515625 10.679688 -0.0078125 8.671875 -1.0625 C 6.660156 -2.113281 5.109375 -3.675781 4.015625 -5.75 C 2.929688 -7.820312 2.390625 -10.347656 2.390625 -13.328125 C 2.390625 -16.367188 2.960938 -18.925781 4.109375 -21 C 5.253906 -23.082031 6.800781 -24.632812 8.75 -25.65625 C 10.707031 -26.6875 12.90625 -27.203125 15.34375 -27.203125 C 19.113281 -27.203125 22.003906 -26.203125 24.015625 -24.203125 C 26.023438 -22.203125 27.03125 -19.265625 27.03125 -15.390625 C 27.03125 -13.984375 26.984375 -12.894531 26.890625 -12.125 Z M 20.625 -16.171875 C 20.550781 -18.203125 20.078125 -19.679688 19.203125 -20.609375 C 18.328125 -21.535156 17.039062 -22 15.34375 -22 C 11.957031 -22 9.960938 -20.054688 9.359375 -16.171875 Z M 20.625 -16.171875 "/></g></g></g><g fill="#ffffff" fill-opacity="1"><g transform="translate(276.431249, 265.118728)"><g><path d="M 3.84375 0 L 3.84375 -26.6875 L 10.28125 -26.6875 L 10.28125 -22.765625 L 10.796875 -22.65625 C 12.453125 -25.6875 15.144531 -27.203125 18.875 -27.203125 C 21.957031 -27.203125 24.21875 -26.363281 25.65625 -24.6875 C 27.101562 -23.007812 27.828125 -20.566406 27.828125 -17.359375 L 27.828125 0 L 21.125 0 L 21.125 -16.53125 C 21.125 -18.300781 20.769531 -19.578125 20.0625 -20.359375 C 19.351562 -21.140625 18.21875 -21.53125 16.65625 -21.53125 C 14.726562 -21.53125 13.226562 -20.910156 12.15625 -19.671875 C 11.082031 -18.429688 10.546875 -16.476562 10.546875 -13.8125 L 10.546875 0 Z M 3.84375 0 "/></g></g></g><g fill="#ffffff" fill-opacity="1"><g transform="translate(306.902761, 265.118728)"><g><path d="M 18.421875 -6.359375 L 20.15625 -1.40625 C 19.425781 -0.8125 18.515625 -0.34375 17.421875 0 C 16.328125 0.34375 15.085938 0.515625 13.703125 0.515625 C 10.804688 0.515625 8.609375 -0.269531 7.109375 -1.84375 C 5.609375 -3.414062 4.859375 -5.707031 4.859375 -8.71875 L 4.859375 -21.390625 L 0.796875 -21.390625 L 0.796875 -26.71875 L 4.859375 -26.71875 L 4.859375 -31.921875 L 11.5625 -33.015625 L 11.5625 -26.71875 L 19.140625 -26.71875 L 19.140625 -21.390625 L 11.5625 -21.390625 L 11.5625 -9.203125 C 11.5625 -7.878906 11.835938 -6.910156 12.390625 -6.296875 C 12.941406 -5.691406 13.738281 -5.390625 14.78125 -5.390625 C 15.976562 -5.390625 17.019531 -5.710938 17.90625 -6.359375 Z M 18.421875 -6.359375 "/></g></g></g></svg>