<svg xmlns="http://www.w3.org/2000/svg" xmlns:xlink="http://www.w3.org/1999/xlink" width="500" zoomAndPan="magnify" viewBox="0 0 375 374.999991" height="500" preserveAspectRatio="xMidYMid meet" version="1.0"><defs><g/><clipPath id="beb4f17f1f"><path d="M 0 100.089844 L 183 100.089844 L 183 226.839844 L 0 226.839844 Z M 0 100.089844 " clip-rule="nonzero"/></clipPath></defs><g clip-path="url(#beb4f17f1f)"><path fill="#ff9202" d="M 395.136719 219.445312 C 397.105469 219.445312 398.699219 221.039062 398.699219 223.003906 C 398.699219 224.972656 397.105469 226.566406 395.136719 226.566406 L 29.527344 226.566406 C 26.007812 226.566406 22.804688 225.125 20.492188 222.8125 C 18.175781 220.492188 16.734375 217.292969 16.734375 213.773438 L 16.734375 168.792969 L 10.390625 168.792969 C 7.914062 168.792969 5.875 168.144531 4.28125 167.066406 C 2.519531 165.875 1.351562 164.191406 0.761719 162.277344 L 0.757812 162.277344 C 0.214844 160.5 0.199219 158.542969 0.6875 156.640625 C 1.269531 154.375 2.574219 152.164062 4.5625 150.453125 L 59.074219 103.460938 C 61.683594 101.214844 65.066406 100.089844 68.414062 100.089844 C 71.761719 100.089844 75.144531 101.214844 77.75 103.460938 L 114.386719 135.148438 C 115.867188 136.429688 116.027344 138.671875 114.746094 140.152344 C 113.464844 141.636719 111.222656 141.800781 109.742188 140.515625 L 73.105469 108.832031 C 71.851562 107.753906 70.152344 107.210938 68.414062 107.210938 C 66.675781 107.210938 64.96875 107.753906 63.71875 108.832031 L 9.207031 155.820312 C 8.347656 156.5625 7.792969 157.480469 7.558594 158.394531 C 7.394531 159.039062 7.386719 159.664062 7.546875 160.191406 L 7.542969 160.191406 L 7.546875 160.203125 C 7.664062 160.585938 7.902344 160.925781 8.257812 161.167969 C 8.722656 161.484375 9.425781 161.671875 10.390625 161.671875 L 20.296875 161.671875 C 22.261719 161.671875 23.855469 163.265625 23.855469 165.234375 L 23.855469 213.773438 C 23.855469 215.328125 24.496094 216.75 25.523438 217.777344 C 26.554688 218.804688 27.972656 219.445312 29.527344 219.445312 Z M 395.136719 219.445312 " fill-opacity="1" fill-rule="nonzero"/></g><g fill="#002f6d" fill-opacity="1"><g transform="translate(41.490803, 201.722043)"><g><path d="M 21.515625 -7.4375 L 23.5625 -1.640625 C 22.707031 -0.941406 21.640625 -0.394531 20.359375 0 C 19.078125 0.394531 17.625 0.59375 16 0.59375 C 12.625 0.59375 10.0625 -0.320312 8.3125 -2.15625 C 6.5625 -4 5.6875 -6.675781 5.6875 -10.1875 L 5.6875 -25 L 0.9375 -25 L 0.9375 -31.21875 L 5.6875 -31.21875 L 5.6875 -37.296875 L 13.515625 -38.578125 L 13.515625 -31.21875 L 22.375 -31.21875 L 22.375 -25 L 13.515625 -25 L 13.515625 -10.75 C 13.515625 -9.195312 13.832031 -8.066406 14.46875 -7.359375 C 15.113281 -6.660156 16.050781 -6.3125 17.28125 -6.3125 C 18.675781 -6.3125 19.890625 -6.6875 20.921875 -7.4375 Z M 21.515625 -7.4375 "/></g></g></g><g fill="#002f6d" fill-opacity="1"><g transform="translate(63.008043, 201.722043)"><g><path d="M 4.5 0 L 4.5 -43.71875 L 12.328125 -43.71875 L 12.328125 -27.125 L 12.921875 -27.015625 C 13.960938 -28.535156 15.234375 -29.710938 16.734375 -30.546875 C 18.242188 -31.378906 20.066406 -31.796875 22.203125 -31.796875 C 29.085938 -31.796875 32.53125 -27.890625 32.53125 -20.078125 L 32.53125 0 L 24.6875 0 L 24.6875 -19.09375 C 24.6875 -21.21875 24.257812 -22.757812 23.40625 -23.71875 C 22.5625 -24.6875 21.242188 -25.171875 19.453125 -25.171875 C 17.265625 -25.171875 15.53125 -24.4375 14.25 -22.96875 C 12.96875 -21.507812 12.328125 -19.238281 12.328125 -16.15625 L 12.328125 0 Z M 4.5 0 "/></g></g></g><g fill="#002f6d" fill-opacity="1"><g transform="translate(96.829165, 201.722043)"><g><path d="M 30.828125 -13.828125 L 10.78125 -13.828125 C 11 -11.109375 11.769531 -9.128906 13.09375 -7.890625 C 14.414062 -6.660156 16.21875 -6.046875 18.5 -6.046875 C 20.289062 -6.046875 21.738281 -6.378906 22.84375 -7.046875 C 23.957031 -7.722656 24.851562 -8.738281 25.53125 -10.09375 L 26.125 -10.09375 L 31.34375 -6.765625 C 30.320312 -4.578125 28.78125 -2.800781 26.71875 -1.4375 C 24.664062 -0.0820312 21.925781 0.59375 18.5 0.59375 C 15.269531 0.59375 12.484375 -0.015625 10.140625 -1.234375 C 7.796875 -2.460938 5.984375 -4.285156 4.703125 -6.703125 C 3.429688 -9.128906 2.796875 -12.085938 2.796875 -15.578125 C 2.796875 -19.128906 3.460938 -22.117188 4.796875 -24.546875 C 6.140625 -26.984375 7.953125 -28.800781 10.234375 -30 C 12.515625 -31.195312 15.082031 -31.796875 17.9375 -31.796875 C 22.34375 -31.796875 25.71875 -30.625 28.0625 -28.28125 C 30.414062 -25.945312 31.59375 -22.515625 31.59375 -17.984375 C 31.59375 -16.347656 31.535156 -15.078125 31.421875 -14.171875 Z M 24.09375 -18.890625 C 24.019531 -21.265625 23.46875 -22.992188 22.4375 -24.078125 C 21.414062 -25.160156 19.914062 -25.703125 17.9375 -25.703125 C 13.96875 -25.703125 11.632812 -23.429688 10.9375 -18.890625 Z M 24.09375 -18.890625 "/></g></g></g><g fill="#002f6d" fill-opacity="1"><g transform="translate(128.019812, 201.722043)"><g><path d="M 30.828125 -13.828125 L 10.78125 -13.828125 C 11 -11.109375 11.769531 -9.128906 13.09375 -7.890625 C 14.414062 -6.660156 16.21875 -6.046875 18.5 -6.046875 C 20.289062 -6.046875 21.738281 -6.378906 22.84375 -7.046875 C 23.957031 -7.722656 24.851562 -8.738281 25.53125 -10.09375 L 26.125 -10.09375 L 31.34375 -6.765625 C 30.320312 -4.578125 28.78125 -2.800781 26.71875 -1.4375 C 24.664062 -0.0820312 21.925781 0.59375 18.5 0.59375 C 15.269531 0.59375 12.484375 -0.015625 10.140625 -1.234375 C 7.796875 -2.460938 5.984375 -4.285156 4.703125 -6.703125 C 3.429688 -9.128906 2.796875 -12.085938 2.796875 -15.578125 C 2.796875 -19.128906 3.460938 -22.117188 4.796875 -24.546875 C 6.140625 -26.984375 7.953125 -28.800781 10.234375 -30 C 12.515625 -31.195312 15.082031 -31.796875 17.9375 -31.796875 C 22.34375 -31.796875 25.71875 -30.625 28.0625 -28.28125 C 30.414062 -25.945312 31.59375 -22.515625 31.59375 -17.984375 C 31.59375 -16.347656 31.535156 -15.078125 31.421875 -14.171875 Z M 24.09375 -18.890625 C 24.019531 -21.265625 23.46875 -22.992188 22.4375 -24.078125 C 21.414062 -25.160156 19.914062 -25.703125 17.9375 -25.703125 C 13.96875 -25.703125 11.632812 -23.429688 10.9375 -18.890625 Z M 24.09375 -18.890625 "/></g></g></g><g fill="#002f6d" fill-opacity="1"><g transform="translate(159.210452, 201.722043)"><g><path d="M 12.15625 0.59375 C 10.15625 0.59375 8.421875 0.226562 6.953125 -0.5 C 5.484375 -1.238281 4.351562 -2.316406 3.5625 -3.734375 C 2.769531 -5.160156 2.375 -6.875 2.375 -8.875 C 2.375 -10.726562 2.769531 -12.28125 3.5625 -13.53125 C 4.351562 -14.78125 5.578125 -15.804688 7.234375 -16.609375 C 8.898438 -17.410156 11.070312 -18.03125 13.75 -18.46875 C 15.613281 -18.769531 17.03125 -19.097656 18 -19.453125 C 18.96875 -19.816406 19.617188 -20.222656 19.953125 -20.671875 C 20.296875 -21.128906 20.46875 -21.707031 20.46875 -22.40625 C 20.46875 -23.394531 20.117188 -24.15625 19.421875 -24.6875 C 18.734375 -25.21875 17.578125 -25.484375 15.953125 -25.484375 C 14.210938 -25.484375 12.5625 -25.09375 11 -24.3125 C 9.4375 -23.539062 8.078125 -22.523438 6.921875 -21.265625 L 6.359375 -21.265625 L 3.078125 -26.21875 C 4.660156 -27.96875 6.59375 -29.332031 8.875 -30.3125 C 11.15625 -31.300781 13.644531 -31.796875 16.34375 -31.796875 C 20.476562 -31.796875 23.46875 -30.914062 25.3125 -29.15625 C 27.15625 -27.40625 28.078125 -24.914062 28.078125 -21.6875 L 28.078125 -8.140625 C 28.078125 -6.742188 28.691406 -6.046875 29.921875 -6.046875 C 30.390625 -6.046875 30.851562 -6.132812 31.3125 -6.3125 L 31.703125 -6.1875 L 32.265625 -0.734375 C 31.835938 -0.453125 31.234375 -0.222656 30.453125 -0.046875 C 29.679688 0.128906 28.835938 0.21875 27.921875 0.21875 C 26.046875 0.21875 24.582031 -0.132812 23.53125 -0.84375 C 22.488281 -1.5625 21.742188 -2.6875 21.296875 -4.21875 L 20.703125 -4.265625 C 19.171875 -1.023438 16.320312 0.59375 12.15625 0.59375 Z M 14.65625 -5.265625 C 16.457031 -5.265625 17.898438 -5.867188 18.984375 -7.078125 C 20.078125 -8.296875 20.625 -9.988281 20.625 -12.15625 L 20.625 -15.328125 L 20.078125 -15.4375 C 19.609375 -15.0625 18.988281 -14.742188 18.21875 -14.484375 C 17.457031 -14.234375 16.363281 -13.988281 14.9375 -13.75 C 13.238281 -13.46875 12.015625 -12.976562 11.265625 -12.28125 C 10.523438 -11.59375 10.15625 -10.617188 10.15625 -9.359375 C 10.15625 -8.023438 10.550781 -7.007812 11.34375 -6.3125 C 12.132812 -5.613281 13.238281 -5.265625 14.65625 -5.265625 Z M 14.65625 -5.265625 "/></g></g></g><g fill="#002f6d" fill-opacity="1"><g transform="translate(189.382838, 201.722043)"><g><path d="M 14.59375 0.59375 C 12.457031 0.59375 10.503906 0.34375 8.734375 -0.15625 C 6.960938 -0.65625 5.445312 -1.34375 4.1875 -2.21875 C 2.9375 -3.09375 2.015625 -4.097656 1.421875 -5.234375 L 5.765625 -9.921875 L 6.359375 -9.921875 C 7.398438 -8.523438 8.625 -7.476562 10.03125 -6.78125 C 11.445312 -6.082031 12.988281 -5.734375 14.65625 -5.734375 C 16.175781 -5.734375 17.320312 -6.003906 18.09375 -6.546875 C 18.875 -7.097656 19.265625 -7.882812 19.265625 -8.90625 C 19.265625 -9.695312 18.984375 -10.359375 18.421875 -10.890625 C 17.867188 -11.429688 16.96875 -11.851562 15.71875 -12.15625 L 11.59375 -13.15625 C 8.5 -13.882812 6.238281 -15.007812 4.8125 -16.53125 C 3.394531 -18.050781 2.6875 -19.976562 2.6875 -22.3125 C 2.6875 -24.257812 3.179688 -25.945312 4.171875 -27.375 C 5.160156 -28.8125 6.554688 -29.90625 8.359375 -30.65625 C 10.160156 -31.414062 12.257812 -31.796875 14.65625 -31.796875 C 17.457031 -31.796875 19.78125 -31.390625 21.625 -30.578125 C 23.476562 -29.765625 24.925781 -28.679688 25.96875 -27.328125 L 21.78125 -22.796875 L 21.21875 -22.796875 C 20.34375 -23.773438 19.363281 -24.488281 18.28125 -24.9375 C 17.195312 -25.394531 15.988281 -25.625 14.65625 -25.625 C 11.5625 -25.625 10.015625 -24.660156 10.015625 -22.734375 C 10.015625 -21.921875 10.300781 -21.257812 10.875 -20.75 C 11.445312 -20.25 12.460938 -19.835938 13.921875 -19.515625 L 17.765625 -18.671875 C 20.929688 -17.984375 23.242188 -16.890625 24.703125 -15.390625 C 26.160156 -13.898438 26.890625 -11.890625 26.890625 -9.359375 C 26.890625 -7.378906 26.398438 -5.632812 25.421875 -4.125 C 24.441406 -2.613281 23.023438 -1.445312 21.171875 -0.625 C 19.328125 0.1875 17.132812 0.59375 14.59375 0.59375 Z M 14.59375 0.59375 "/></g></g></g><g fill="#002f6d" fill-opacity="1"><g transform="translate(215.425642, 201.722043)"><g><path d="M 30.828125 -13.828125 L 10.78125 -13.828125 C 11 -11.109375 11.769531 -9.128906 13.09375 -7.890625 C 14.414062 -6.660156 16.21875 -6.046875 18.5 -6.046875 C 20.289062 -6.046875 21.738281 -6.378906 22.84375 -7.046875 C 23.957031 -7.722656 24.851562 -8.738281 25.53125 -10.09375 L 26.125 -10.09375 L 31.34375 -6.765625 C 30.320312 -4.578125 28.78125 -2.800781 26.71875 -1.4375 C 24.664062 -0.0820312 21.925781 0.59375 18.5 0.59375 C 15.269531 0.59375 12.484375 -0.015625 10.140625 -1.234375 C 7.796875 -2.460938 5.984375 -4.285156 4.703125 -6.703125 C 3.429688 -9.128906 2.796875 -12.085938 2.796875 -15.578125 C 2.796875 -19.128906 3.460938 -22.117188 4.796875 -24.546875 C 6.140625 -26.984375 7.953125 -28.800781 10.234375 -30 C 12.515625 -31.195312 15.082031 -31.796875 17.9375 -31.796875 C 22.34375 -31.796875 25.71875 -30.625 28.0625 -28.28125 C 30.414062 -25.945312 31.59375 -22.515625 31.59375 -17.984375 C 31.59375 -16.347656 31.535156 -15.078125 31.421875 -14.171875 Z M 24.09375 -18.890625 C 24.019531 -21.265625 23.46875 -22.992188 22.4375 -24.078125 C 21.414062 -25.160156 19.914062 -25.703125 17.9375 -25.703125 C 13.96875 -25.703125 11.632812 -23.429688 10.9375 -18.890625 Z M 24.09375 -18.890625 "/></g></g></g><g fill="#002f6d" fill-opacity="1"><g transform="translate(246.616282, 201.722043)"><g><path d="M 7.96875 0.25 C 6.976562 0.25 6.097656 0.046875 5.328125 -0.359375 C 4.566406 -0.765625 3.984375 -1.320312 3.578125 -2.03125 C 3.171875 -2.75 2.96875 -3.5625 2.96875 -4.46875 C 2.96875 -5.375 3.171875 -6.179688 3.578125 -6.890625 C 3.984375 -7.609375 4.566406 -8.175781 5.328125 -8.59375 C 6.097656 -9.007812 6.976562 -9.21875 7.96875 -9.21875 C 8.988281 -9.21875 9.878906 -9.015625 10.640625 -8.609375 C 11.410156 -8.203125 12 -7.640625 12.40625 -6.921875 C 12.8125 -6.210938 13.015625 -5.40625 13.015625 -4.5 C 13.015625 -3.125 12.554688 -1.988281 11.640625 -1.09375 C 10.722656 -0.195312 9.5 0.25 7.96875 0.25 Z M 7.96875 0.25 "/></g></g></g><g fill="#002f6d" fill-opacity="1"><g transform="translate(259.874355, 201.722043)"><g><path d="M 4.5 0 L 4.5 -31.1875 L 12.109375 -31.1875 L 12.109375 -26.5625 L 12.703125 -26.4375 C 13.453125 -28.175781 14.4375 -29.453125 15.65625 -30.265625 C 16.882812 -31.078125 18.378906 -31.484375 20.140625 -31.484375 C 21.910156 -31.484375 23.257812 -31.179688 24.1875 -30.578125 L 22.859375 -23.8125 L 22.265625 -23.703125 C 21.753906 -23.910156 21.257812 -24.0625 20.78125 -24.15625 C 20.3125 -24.25 19.738281 -24.296875 19.0625 -24.296875 C 16.875 -24.296875 15.203125 -23.523438 14.046875 -21.984375 C 12.898438 -20.453125 12.328125 -17.988281 12.328125 -14.59375 L 12.328125 0 Z M 4.5 0 "/></g></g></g><g fill="#002f6d" fill-opacity="1"><g transform="translate(281.617869, 201.722043)"><g><path d="M 30.828125 -13.828125 L 10.78125 -13.828125 C 11 -11.109375 11.769531 -9.128906 13.09375 -7.890625 C 14.414062 -6.660156 16.21875 -6.046875 18.5 -6.046875 C 20.289062 -6.046875 21.738281 -6.378906 22.84375 -7.046875 C 23.957031 -7.722656 24.851562 -8.738281 25.53125 -10.09375 L 26.125 -10.09375 L 31.34375 -6.765625 C 30.320312 -4.578125 28.78125 -2.800781 26.71875 -1.4375 C 24.664062 -0.0820312 21.925781 0.59375 18.5 0.59375 C 15.269531 0.59375 12.484375 -0.015625 10.140625 -1.234375 C 7.796875 -2.460938 5.984375 -4.285156 4.703125 -6.703125 C 3.429688 -9.128906 2.796875 -12.085938 2.796875 -15.578125 C 2.796875 -19.128906 3.460938 -22.117188 4.796875 -24.546875 C 6.140625 -26.984375 7.953125 -28.800781 10.234375 -30 C 12.515625 -31.195312 15.082031 -31.796875 17.9375 -31.796875 C 22.34375 -31.796875 25.71875 -30.625 28.0625 -28.28125 C 30.414062 -25.945312 31.59375 -22.515625 31.59375 -17.984375 C 31.59375 -16.347656 31.535156 -15.078125 31.421875 -14.171875 Z M 24.09375 -18.890625 C 24.019531 -21.265625 23.46875 -22.992188 22.4375 -24.078125 C 21.414062 -25.160156 19.914062 -25.703125 17.9375 -25.703125 C 13.96875 -25.703125 11.632812 -23.429688 10.9375 -18.890625 Z M 24.09375 -18.890625 "/></g></g></g><g fill="#002f6d" fill-opacity="1"><g transform="translate(312.808509, 201.722043)"><g><path d="M 4.5 0 L 4.5 -31.1875 L 12.015625 -31.1875 L 12.015625 -26.609375 L 12.609375 -26.46875 C 14.554688 -30.019531 17.707031 -31.796875 22.0625 -31.796875 C 25.664062 -31.796875 28.3125 -30.8125 30 -28.84375 C 31.6875 -26.882812 32.53125 -24.03125 32.53125 -20.28125 L 32.53125 0 L 24.6875 0 L 24.6875 -19.3125 C 24.6875 -21.382812 24.269531 -22.878906 23.4375 -23.796875 C 22.613281 -24.710938 21.285156 -25.171875 19.453125 -25.171875 C 17.210938 -25.171875 15.460938 -24.441406 14.203125 -22.984375 C 12.953125 -21.535156 12.328125 -19.257812 12.328125 -16.15625 L 12.328125 0 Z M 4.5 0 "/></g></g></g><g fill="#002f6d" fill-opacity="1"><g transform="translate(346.629627, 201.722043)"><g><path d="M 21.515625 -7.4375 L 23.5625 -1.640625 C 22.707031 -0.941406 21.640625 -0.394531 20.359375 0 C 19.078125 0.394531 17.625 0.59375 16 0.59375 C 12.625 0.59375 10.0625 -0.320312 8.3125 -2.15625 C 6.5625 -4 5.6875 -6.675781 5.6875 -10.1875 L 5.6875 -25 L 0.9375 -25 L 0.9375 -31.21875 L 5.6875 -31.21875 L 5.6875 -37.296875 L 13.515625 -38.578125 L 13.515625 -31.21875 L 22.375 -31.21875 L 22.375 -25 L 13.515625 -25 L 13.515625 -10.75 C 13.515625 -9.195312 13.832031 -8.066406 14.46875 -7.359375 C 15.113281 -6.660156 16.050781 -6.3125 17.28125 -6.3125 C 18.675781 -6.3125 19.890625 -6.6875 20.921875 -7.4375 Z M 21.515625 -7.4375 "/></g></g></g><g fill="#3b253b" fill-opacity="1"><g transform="translate(194.683717, 225.965594)"><g><path d="M 8.078125 -7.578125 C 8.078125 -7.003906 7.96875 -6.519531 7.75 -6.125 C 7.53125 -5.738281 7.21875 -5.414062 6.8125 -5.15625 C 7.269531 -4.96875 7.613281 -4.691406 7.84375 -4.328125 C 8.082031 -3.960938 8.203125 -3.488281 8.203125 -2.90625 C 8.203125 -1.894531 7.921875 -1.15625 7.359375 -0.6875 C 6.796875 -0.226562 5.90625 0 4.6875 0 L 0.859375 0 L 0.859375 -10.234375 L 4.6875 -10.234375 C 5.800781 -10.234375 6.644531 -10.007812 7.21875 -9.5625 C 7.789062 -9.125 8.078125 -8.460938 8.078125 -7.578125 Z M 2.921875 -5.984375 L 4.421875 -5.984375 C 4.941406 -5.984375 5.335938 -6.082031 5.609375 -6.28125 C 5.878906 -6.488281 6.015625 -6.832031 6.015625 -7.3125 C 6.015625 -7.738281 5.875 -8.039062 5.59375 -8.21875 C 5.320312 -8.40625 4.910156 -8.5 4.359375 -8.5 L 2.921875 -8.5 Z M 2.921875 -4.234375 L 2.921875 -1.734375 L 4.40625 -1.734375 C 4.988281 -1.734375 5.421875 -1.832031 5.703125 -2.03125 C 5.992188 -2.238281 6.140625 -2.597656 6.140625 -3.109375 C 6.140625 -3.546875 5.992188 -3.84375 5.703125 -4 C 5.421875 -4.15625 4.992188 -4.234375 4.421875 -4.234375 Z M 2.921875 -4.234375 "/></g></g></g><g fill="#3b253b" fill-opacity="1"><g transform="translate(206.346371, 225.965594)"><g><path d="M 2.578125 -10.234375 L 4.359375 -6.859375 L 6.15625 -10.234375 L 8.484375 -10.234375 L 5.390625 -4.515625 L 5.390625 0 L 3.328125 0 L 3.328125 -4.515625 L 0.25 -10.234375 Z M 2.578125 -10.234375 "/></g></g></g><g fill="#3b253b" fill-opacity="1"><g transform="translate(217.950499, 225.965594)"><g/></g></g><g fill="#3b253b" fill-opacity="1"><g transform="translate(225.355729, 225.965594)"><g><path d="M 9.546875 -5.703125 L 9.546875 -4.46875 C 9.546875 -3.695312 9.441406 -3.019531 9.234375 -2.4375 C 9.035156 -1.863281 8.742188 -1.382812 8.359375 -1 C 7.984375 -0.613281 7.53125 -0.328125 7 -0.140625 C 6.476562 0.046875 5.894531 0.140625 5.25 0.140625 C 4.625 0.140625 4.03125 0.0546875 3.46875 -0.109375 C 2.90625 -0.273438 2.414062 -0.5625 2 -0.96875 C 1.582031 -1.375 1.25 -1.910156 1 -2.578125 C 0.757812 -3.253906 0.640625 -4.097656 0.640625 -5.109375 C 0.640625 -6.109375 0.757812 -6.941406 1 -7.609375 C 1.25 -8.285156 1.582031 -8.828125 2 -9.234375 C 2.414062 -9.648438 2.90625 -9.945312 3.46875 -10.125 C 4.03125 -10.300781 4.625 -10.390625 5.25 -10.390625 C 5.738281 -10.390625 6.195312 -10.332031 6.625 -10.21875 C 7.050781 -10.113281 7.441406 -9.941406 7.796875 -9.703125 C 8.160156 -9.472656 8.476562 -9.171875 8.75 -8.796875 C 9.019531 -8.421875 9.242188 -7.960938 9.421875 -7.421875 L 7.515625 -6.828125 C 7.316406 -7.503906 7.019531 -7.972656 6.625 -8.234375 C 6.238281 -8.503906 5.78125 -8.640625 5.25 -8.640625 C 4.90625 -8.640625 4.578125 -8.585938 4.265625 -8.484375 C 3.960938 -8.378906 3.691406 -8.191406 3.453125 -7.921875 C 3.222656 -7.648438 3.039062 -7.285156 2.90625 -6.828125 C 2.769531 -6.367188 2.703125 -5.796875 2.703125 -5.109375 C 2.703125 -4.410156 2.769531 -3.832031 2.90625 -3.375 C 3.039062 -2.925781 3.222656 -2.570312 3.453125 -2.3125 C 3.691406 -2.050781 3.960938 -1.863281 4.265625 -1.75 C 4.578125 -1.644531 4.90625 -1.59375 5.25 -1.59375 C 5.550781 -1.59375 5.832031 -1.625 6.09375 -1.6875 C 6.351562 -1.757812 6.578125 -1.882812 6.765625 -2.0625 C 6.953125 -2.238281 7.109375 -2.476562 7.234375 -2.78125 C 7.359375 -3.09375 7.429688 -3.488281 7.453125 -3.96875 L 4.703125 -3.96875 L 4.703125 -5.703125 Z M 9.546875 -5.703125 "/></g></g></g><g fill="#3b253b" fill-opacity="1"><g transform="translate(238.422894, 225.965594)"><g><path d="M 5.328125 -8.5 L 5.328125 0 L 3.265625 0 L 3.265625 -8.5 L 0.53125 -8.5 L 0.53125 -10.234375 L 8.0625 -10.234375 L 8.0625 -8.5 Z M 5.328125 -8.5 "/></g></g></g><g fill="#3b253b" fill-opacity="1"><g transform="translate(249.895353, 225.965594)"><g><path d="M 3.390625 -10.234375 L 5.953125 -3.46875 L 8.515625 -10.234375 L 10.65625 -10.234375 L 11.203125 0 L 9.140625 0 L 8.859375 -5.390625 L 6.796875 0 L 5.125 0 L 3.0625 -5.390625 L 2.78125 0 L 0.71875 0 L 1.25 -10.234375 Z M 3.390625 -10.234375 "/></g></g></g><g fill="#3b253b" fill-opacity="1"><g transform="translate(264.68889, 225.965594)"><g/></g></g><g fill="#3b253b" fill-opacity="1"><g transform="translate(272.094122, 225.965594)"><g><path d="M 2.921875 -3.78125 L 2.921875 0 L 0.859375 0 L 0.859375 -10.234375 L 4.1875 -10.234375 C 5.382812 -10.234375 6.289062 -9.976562 6.90625 -9.46875 C 7.53125 -8.96875 7.84375 -8.195312 7.84375 -7.15625 C 7.84375 -5.957031 7.53125 -5.09375 6.90625 -4.5625 C 6.289062 -4.039062 5.390625 -3.78125 4.203125 -3.78125 Z M 2.921875 -8.5 L 2.921875 -5.53125 L 4.203125 -5.53125 C 4.722656 -5.53125 5.113281 -5.640625 5.375 -5.859375 C 5.644531 -6.078125 5.78125 -6.507812 5.78125 -7.15625 C 5.78125 -7.425781 5.742188 -7.644531 5.671875 -7.8125 C 5.609375 -7.988281 5.507812 -8.125 5.375 -8.21875 C 5.238281 -8.320312 5.070312 -8.394531 4.875 -8.4375 C 4.6875 -8.476562 4.460938 -8.5 4.203125 -8.5 Z M 2.921875 -8.5 "/></g></g></g><g fill="#3b253b" fill-opacity="1"><g transform="translate(283.508072, 225.965594)"><g><path d="M 7.5 -10.234375 L 9.71875 -10.234375 L 5.828125 0 L 4.140625 0 L 0.25 -10.234375 L 2.453125 -10.234375 L 4.96875 -3.53125 Z M 7.5 -10.234375 "/></g></g></g><g fill="#3b253b" fill-opacity="1"><g transform="translate(296.341153, 225.965594)"><g><path d="M 5.328125 -8.5 L 5.328125 0 L 3.265625 0 L 3.265625 -8.5 L 0.53125 -8.5 L 0.53125 -10.234375 L 8.0625 -10.234375 L 8.0625 -8.5 Z M 5.328125 -8.5 "/></g></g></g><g fill="#3b253b" fill-opacity="1"><g transform="translate(307.813612, 225.965594)"><g/></g></g><g fill="#3b253b" fill-opacity="1"><g transform="translate(315.218844, 225.965594)"><g><path d="M 2.921875 -1.734375 L 7.09375 -1.734375 L 7.09375 0 L 0.859375 0 L 0.859375 -10.234375 L 2.921875 -10.234375 Z M 2.921875 -1.734375 "/></g></g></g><g fill="#3b253b" fill-opacity="1"><g transform="translate(325.754962, 225.965594)"><g><path d="M 5.328125 -8.5 L 5.328125 0 L 3.265625 0 L 3.265625 -8.5 L 0.53125 -8.5 L 0.53125 -10.234375 L 8.0625 -10.234375 L 8.0625 -8.5 Z M 5.328125 -8.5 "/></g></g></g><g fill="#3b253b" fill-opacity="1"><g transform="translate(337.227413, 225.965594)"><g><path d="M 0.859375 0 L 0.859375 -10.234375 L 3.84375 -10.234375 C 4.957031 -10.234375 5.859375 -10.113281 6.546875 -9.875 C 7.242188 -9.644531 7.78125 -9.304688 8.15625 -8.859375 C 8.539062 -8.410156 8.796875 -7.863281 8.921875 -7.21875 C 9.054688 -6.570312 9.125 -5.835938 9.125 -5.015625 C 9.125 -4.285156 9.050781 -3.613281 8.90625 -3 C 8.769531 -2.382812 8.507812 -1.851562 8.125 -1.40625 C 7.75 -0.96875 7.234375 -0.625 6.578125 -0.375 C 5.921875 -0.125 5.070312 0 4.03125 0 Z M 2.921875 -8.5 L 2.921875 -1.734375 L 4.078125 -1.734375 C 4.734375 -1.734375 5.257812 -1.804688 5.65625 -1.953125 C 6.050781 -2.109375 6.351562 -2.332031 6.5625 -2.625 C 6.769531 -2.914062 6.90625 -3.257812 6.96875 -3.65625 C 7.03125 -4.0625 7.0625 -4.515625 7.0625 -5.015625 C 7.0625 -5.585938 7.03125 -6.09375 6.96875 -6.53125 C 6.914062 -6.96875 6.78125 -7.332031 6.5625 -7.625 C 6.34375 -7.914062 6.015625 -8.132812 5.578125 -8.28125 C 5.148438 -8.425781 4.570312 -8.5 3.84375 -8.5 Z M 2.921875 -8.5 "/></g></g></g></svg>