<svg width="161" height="65" viewBox="0 0 161 65" fill="none" xmlns="http://www.w3.org/2000/svg">
<mask id="mask0_36_301" style="mask-type:luminance" maskUnits="userSpaceOnUse" x="0" y="0" width="79" height="55">
<path d="M0 0H78.246V54.096H0V0Z" fill="white"/>
</mask>
<g mask="url(#mask0_36_301)">
<path d="M168.911 51.0186C169.751 51.0186 170.432 51.7011 170.432 52.5413C170.432 53.3816 169.751 54.0641 168.911 54.0641H12.6249C11.1205 54.0641 9.75202 53.4486 8.76254 52.4575C7.77138 51.468 7.15589 50.0995 7.15589 48.5952V29.3691H4.44405C3.38581 29.3691 2.51373 29.0907 1.83283 28.6295C1.07982 28.1213 0.580048 27.4002 0.328486 26.5818L0.326809 26.5834C0.0953709 25.8237 0.0869856 24.9852 0.296621 24.1735C0.544829 23.2041 1.1033 22.2599 1.95358 21.527L25.255 1.44061C26.3702 0.479646 27.8159 0 29.2464 0C30.677 0 32.1243 0.479646 33.2379 1.44061L48.8985 14.9864C49.5324 15.5331 49.6012 16.4924 49.0528 17.1247C48.5044 17.7586 47.5468 17.8291 46.9128 17.2807L31.2539 3.73654C30.7172 3.27534 29.9894 3.04391 29.2464 3.04391C28.5052 3.04391 27.7756 3.27534 27.239 3.73654L3.93925 23.823C3.57196 24.1399 3.33382 24.5307 3.23319 24.9231C3.16276 25.1982 3.16108 25.4648 3.22984 25.6896L3.22816 25.6912L3.22984 25.6963C3.28015 25.8589 3.38078 26.0049 3.53339 26.1088C3.73129 26.243 4.03149 26.3235 4.44405 26.3235H8.67868C9.5189 26.3235 10.1998 27.0061 10.1998 27.8463V48.5952C10.1998 49.2593 10.4748 49.8664 10.9142 50.3058C11.3536 50.7452 11.9591 51.0202 12.6249 51.0202H168.911V51.0186Z" fill="#FF9202"/>
</g>
<path d="M26.9409 40.2662L27.8129 42.7416C27.4507 43.0418 26.9945 43.2766 26.4444 43.446C25.8944 43.6154 25.2722 43.7009 24.5795 43.7009C23.1389 43.7009 22.0438 43.3085 21.2924 42.5202C20.5411 41.7337 20.1654 40.5916 20.1654 39.0923V32.7529H18.1328V30.0964H20.1654V27.4936L23.5196 26.9502V30.0964H27.3031V32.7529H23.5196V38.8508C23.5196 39.5132 23.6554 39.9962 23.9288 40.2998C24.2005 40.6 24.5996 40.7492 25.1229 40.7492C25.7216 40.7492 26.2432 40.5882 26.6859 40.2662H26.9409Z" fill="white"/>
<path d="M28.8604 43.4459V24.7498H32.2078V31.8472L32.4627 31.8941C32.9055 31.2417 33.4489 30.7386 34.0929 30.3848C34.7369 30.0326 35.515 29.8548 36.4274 29.8548C39.369 29.8548 40.8414 31.5235 40.8414 34.8592V43.4459H37.494V35.2818C37.494 34.3695 37.3129 33.7104 36.9506 33.3029C36.5884 32.892 36.0215 32.6857 35.2534 32.6857C34.3176 32.6857 33.5763 32.9993 33.0262 33.6249C32.4795 34.2471 32.2078 35.2198 32.2078 36.543V43.4459H28.8604Z" fill="white"/>
<path d="M54.5752 37.5293H46.0019C46.0959 38.6932 46.4246 39.5385 46.9881 40.0651C47.5549 40.5933 48.3264 40.8566 49.3024 40.8566C50.0672 40.8566 50.686 40.7141 51.1607 40.4273C51.6386 40.1422 52.0227 39.7078 52.3145 39.1259H52.5694L54.7899 40.5548C54.3555 41.4906 53.6981 42.2486 52.8176 42.8289C51.9405 43.4108 50.7682 43.701 49.3024 43.701C47.9239 43.701 46.7332 43.4394 45.7269 42.9161C44.724 42.3929 43.9509 41.613 43.4058 40.5749C42.8591 39.5385 42.5874 38.2739 42.5874 36.7847C42.5874 35.2686 42.8725 33.9923 43.4461 32.9542C44.018 31.9128 44.7911 31.1363 45.7672 30.6264C46.7466 30.1133 47.8434 29.855 49.0609 29.855C50.9477 29.855 52.3916 30.3564 53.3945 31.3576C54.4008 32.3555 54.9039 33.8196 54.9039 35.7516C54.9039 36.4543 54.8787 36.9994 54.8301 37.3884L54.5752 37.5293ZM51.6973 35.3692C51.6655 34.3546 51.429 33.615 50.9862 33.1488C50.5468 32.6842 49.9062 32.4511 49.0609 32.4511C47.3654 32.4511 46.3709 33.4238 46.0757 35.3692H51.6973Z" fill="white"/>
<path d="M67.9087 37.5293H59.3354C59.4294 38.6932 59.7581 39.5385 60.3216 40.0651C60.8884 40.5933 61.6599 40.8566 62.6359 40.8566C63.4007 40.8566 64.0195 40.7141 64.4941 40.4273C64.9721 40.1422 65.3562 39.7078 65.648 39.1259H65.9029L68.1234 40.5548C67.689 41.4906 67.0316 42.2486 66.1511 42.8289C65.274 43.4108 64.1017 43.701 62.6359 43.701C61.2574 43.701 60.0666 43.4394 59.0604 42.9161C58.0575 42.3929 57.2844 41.613 56.7393 40.5749C56.1926 39.5385 55.9209 38.2739 55.9209 36.7847C55.9209 35.2686 56.206 33.9923 56.7796 32.9542C57.3515 31.9128 58.1246 31.1363 59.1006 30.6264C60.0801 30.1133 61.1769 29.855 62.3944 29.855C64.2812 29.855 65.7251 30.3564 66.728 31.3576C67.7343 32.3555 68.2374 33.8196 68.2374 35.7516C68.2374 36.4543 68.2122 36.9994 68.1636 37.3884L67.9087 37.5293ZM65.0308 35.3692C64.999 34.3546 64.7625 33.615 64.3197 33.1488C63.8803 32.6842 63.2397 32.4511 62.3944 32.4511C60.6989 32.4511 59.7044 33.4238 59.4092 35.3692H65.0308Z" fill="white"/>
<path d="M73.2592 43.701C72.4039 43.701 71.6627 43.5433 71.0321 43.2314C70.4048 42.9144 69.9218 42.4516 69.5831 41.8428C69.2426 41.2357 69.0732 40.5045 69.0732 39.6491C69.0732 38.8576 69.2426 38.1968 69.5831 37.6635C69.9218 37.1268 70.4451 36.6874 71.1528 36.3419C71.8639 35.9981 72.7913 35.7348 73.9368 35.5504C74.7368 35.4212 75.3422 35.2803 75.7547 35.1277C76.1707 34.9718 76.4491 34.7973 76.5933 34.6045C76.7409 34.4133 76.8147 34.1668 76.8147 33.8666C76.8147 33.4423 76.6637 33.1186 76.3652 32.8939C76.07 32.6658 75.5753 32.5517 74.8827 32.5517C74.1397 32.5517 73.4337 32.7178 72.7628 33.0481C72.0953 33.3802 71.5168 33.8129 71.0254 34.3496H70.7839L69.3751 32.2364C70.0543 31.4851 70.8811 30.9015 71.8572 30.4856C72.8316 30.0663 73.8965 29.855 75.0504 29.855C76.8163 29.855 78.0926 30.2306 78.8808 30.982C79.6724 31.73 80.0682 32.7916 80.0682 34.1684V39.9644C80.0682 40.5598 80.3298 40.8566 80.8531 40.8566C81.0543 40.8566 81.2522 40.8214 81.4501 40.7493L81.6178 40.7963L81.8593 43.1308C81.6715 43.2515 81.4115 43.3505 81.0812 43.4259C80.7541 43.5014 80.3919 43.54 79.9944 43.54C79.1978 43.54 78.5756 43.389 78.1295 43.0838C77.6817 42.7752 77.3597 42.2956 77.1635 41.6415L76.9153 41.6214C76.2612 43.0083 75.0437 43.701 73.2592 43.701ZM74.3259 41.1988C75.099 41.1988 75.7162 40.9405 76.1774 40.4206C76.6419 39.8974 76.875 39.1729 76.875 38.2471V36.892L76.647 36.8451C76.4457 37.0061 76.1807 37.1402 75.8554 37.2476C75.5283 37.3549 75.0588 37.4622 74.4466 37.5696C73.7221 37.6903 73.1989 37.8983 72.8769 38.1934C72.5582 38.4886 72.4006 38.9045 72.4006 39.4412C72.4006 40.0148 72.57 40.4508 72.9104 40.7493C73.2492 41.0495 73.7221 41.1988 74.3259 41.1988Z" fill="white"/>
<path d="M87.1975 43.701C86.2885 43.701 85.455 43.5936 84.6953 43.379C83.9389 43.1643 83.2933 42.8725 82.7566 42.5002C82.2199 42.1245 81.8208 41.6935 81.5625 41.2055L83.4274 39.1997H83.6823C84.1251 39.8001 84.6483 40.2495 85.2521 40.5481C85.8558 40.8432 86.5133 40.9908 87.2243 40.9908C87.8767 40.9908 88.3681 40.8751 88.7002 40.642C89.0306 40.4055 89.1966 40.0701 89.1966 39.6357C89.1966 39.297 89.0758 39.0119 88.8343 38.7838C88.5962 38.5557 88.2121 38.3779 87.6805 38.2471L85.9162 37.8245C84.5913 37.5075 83.6253 37.0245 83.0182 36.3755C82.4094 35.7281 82.1059 34.9047 82.1059 33.9068C82.1059 33.075 82.3172 32.3538 82.7432 31.74C83.1675 31.1279 83.7645 30.66 84.5343 30.338C85.3024 30.016 86.1996 29.855 87.2243 29.855C88.4218 29.855 89.418 30.0294 90.2095 30.3782C91.0011 30.7237 91.6183 31.1866 92.061 31.7669L90.2699 33.6989H90.0284C89.6561 33.2796 89.2385 32.9727 88.774 32.7798C88.3128 32.5886 87.7962 32.4914 87.2243 32.4914C85.8994 32.4914 85.2387 32.9039 85.2387 33.7257C85.2387 34.0712 85.3611 34.3529 85.6076 34.5709C85.8525 34.7856 86.2868 34.9634 86.909 35.1009L88.5526 35.4631C89.9077 35.755 90.8955 36.2212 91.5177 36.8652C92.1432 37.5058 92.4568 38.3645 92.4568 39.4412C92.4568 40.2915 92.2455 41.0378 91.8263 41.6818C91.4103 42.3258 90.8066 42.8255 90.015 43.1777C89.2268 43.5266 88.2876 43.701 87.1975 43.701Z" fill="white"/>
<path d="M105.273 37.5293H96.7002C96.7941 38.6932 97.1228 39.5385 97.6863 40.0651C98.2532 40.5933 99.0246 40.8566 100.001 40.8566C100.765 40.8566 101.384 40.7141 101.859 40.4273C102.337 40.1422 102.721 39.7078 103.013 39.1259H103.268L105.488 40.5548C105.054 41.4906 104.396 42.2486 103.516 42.8289C102.639 43.4108 101.466 43.701 100.001 43.701C98.6221 43.701 97.4314 43.4394 96.4251 42.9161C95.4222 42.3929 94.6491 41.613 94.1041 40.5749C93.5573 39.5385 93.2856 38.2739 93.2856 36.7847C93.2856 35.2686 93.5707 33.9923 94.1443 32.9542C94.7162 31.9128 95.4893 31.1363 96.4654 30.6264C97.4448 30.1133 98.5416 29.855 99.7592 29.855C101.646 29.855 103.09 30.3564 104.093 31.3576C105.099 32.3555 105.602 33.8196 105.602 35.7516C105.602 36.4543 105.577 36.9994 105.528 37.3884L105.273 37.5293ZM102.396 35.3692C102.364 34.3546 102.127 33.615 101.684 33.1488C101.245 32.6842 100.604 32.4511 99.7592 32.4511C98.0637 32.4511 97.0691 33.4238 96.774 35.3692H102.396Z" fill="white"/>
<path d="M108.833 43.5533C108.407 43.5533 108.032 43.4678 107.706 43.2984C107.379 43.124 107.129 42.8858 106.955 42.5806C106.781 42.272 106.693 41.9232 106.693 41.5341C106.693 41.15 106.781 40.8062 106.955 40.501C107.129 40.1924 107.379 39.9492 107.706 39.7698C108.032 39.592 108.407 39.5015 108.833 39.5015C109.271 39.5015 109.653 39.5887 109.98 39.7631C110.306 39.9375 110.554 40.179 110.725 40.4876C110.899 40.7928 110.987 41.1366 110.987 41.5207C110.987 42.111 110.789 42.599 110.396 42.9831C110.007 43.3638 109.486 43.5533 108.833 43.5533Z" fill="white"/>
<path d="M113.018 43.4459V30.1098H116.272V32.0887L116.52 32.1357C116.845 31.3978 117.271 30.8577 117.794 30.5123C118.318 30.1634 118.955 29.989 119.706 29.989C120.461 29.989 121.036 30.1165 121.43 30.3714L120.867 33.2627L120.612 33.3096C120.392 33.2208 120.183 33.1553 119.981 33.1151C119.78 33.0748 119.534 33.0547 119.243 33.0547C118.308 33.0547 117.595 33.3834 117.103 34.0408C116.61 34.6983 116.366 35.7548 116.366 37.2072V43.4459H113.018Z" fill="white"/>
<path d="M133.57 37.5293H124.997C125.09 38.6932 125.419 39.5385 125.983 40.0651C126.55 40.5933 127.321 40.8566 128.297 40.8566C129.062 40.8566 129.681 40.7141 130.155 40.4273C130.633 40.1422 131.017 39.7078 131.309 39.1259H131.564L133.784 40.5548C133.35 41.4906 132.693 42.2486 131.812 42.8289C130.935 43.4108 129.763 43.701 128.297 43.701C126.919 43.701 125.728 43.4394 124.722 42.9161C123.719 42.3929 122.945 41.613 122.4 40.5749C121.854 39.5385 121.582 38.2739 121.582 36.7847C121.582 35.2686 121.867 33.9923 122.441 32.9542C123.013 31.9128 123.786 31.1363 124.762 30.6264C125.741 30.1133 126.838 29.855 128.056 29.855C129.942 29.855 131.386 30.3564 132.389 31.3576C133.395 32.3555 133.899 33.8196 133.899 35.7516C133.899 36.4543 133.873 36.9994 133.825 37.3884L133.57 37.5293ZM130.692 35.3692C130.66 34.3546 130.424 33.615 129.981 33.1488C129.541 32.6842 128.901 32.4511 128.056 32.4511C126.36 32.4511 125.366 33.4238 125.07 35.3692H130.692Z" fill="white"/>
<path d="M135.647 43.4461V30.1099H138.86V32.0687L139.115 32.1291C139.947 30.613 141.292 29.855 143.154 29.855C144.691 29.855 145.82 30.2759 146.541 31.1161C147.266 31.953 147.628 33.1723 147.628 34.7722V43.4461H144.281V35.1881C144.281 34.2993 144.101 33.6586 143.744 33.2695C143.39 32.8804 142.822 32.6859 142.04 32.6859C141.082 32.6859 140.336 32.9978 139.799 33.6184C139.263 34.2355 138.994 35.2116 138.994 36.5432V43.4461H135.647Z" fill="white"/>
<path d="M157.384 40.2662L158.256 42.7416C157.894 43.0418 157.437 43.2766 156.887 43.446C156.337 43.6154 155.715 43.7009 155.022 43.7009C153.582 43.7009 152.487 43.3085 151.735 42.5202C150.984 41.7337 150.608 40.5916 150.608 39.0923V32.7529H148.576V30.0964H150.608V27.4936L153.962 26.9502V30.0964H157.746V32.7529H153.962V38.8508C153.962 39.5132 154.098 39.9962 154.372 40.2998C154.643 40.6 155.043 40.7492 155.566 40.7492C156.164 40.7492 156.686 40.5882 157.129 40.2662H157.384Z" fill="white"/>
<path d="M86.6729 50.5697C86.6729 50.8163 86.6259 51.0242 86.532 51.1936C86.4414 51.3596 86.3106 51.4955 86.1362 51.6028C86.3324 51.6884 86.48 51.8091 86.579 51.9651C86.6813 52.1177 86.7333 52.3189 86.7333 52.5688C86.7333 52.9982 86.6125 53.3135 86.371 53.5147C86.1295 53.7126 85.7488 53.8099 85.2306 53.8099H83.5938V49.436H85.2306C85.7035 49.436 86.0624 49.53 86.3039 49.7178C86.5488 49.9056 86.6729 50.1907 86.6729 50.5697ZM84.4725 51.254H85.1098C85.3379 51.254 85.5073 51.2121 85.6197 51.1265C85.7354 51.0376 85.7941 50.8901 85.7941 50.6838C85.7941 50.501 85.7354 50.3718 85.6197 50.2947C85.5023 50.2192 85.3262 50.1807 85.0897 50.1807H84.4725V51.254ZM84.4725 51.9986V53.0652H85.1098C85.3547 53.0652 85.5392 53.0233 85.6599 52.9378C85.784 52.8539 85.8478 52.6996 85.8478 52.4749C85.8478 52.2921 85.784 52.1663 85.6599 52.0992C85.5392 52.0322 85.3547 51.9986 85.1098 51.9986H84.4725Z" fill="#D9D9D9"/>
<path d="M89.3107 49.436L90.0755 50.8783L90.8402 49.436H91.8397L90.5182 51.8779V53.8099H89.6327V51.8779L88.3179 49.436H89.3107Z" fill="#D9D9D9"/>
<path d="M100.422 51.3747V51.8979C100.422 52.225 100.377 52.5134 100.288 52.7633C100.197 53.0098 100.073 53.2161 99.9123 53.3805C99.7513 53.5465 99.5568 53.6689 99.3287 53.7494C99.104 53.8299 98.8558 53.8702 98.5841 53.8702C98.3157 53.8702 98.0608 53.8333 97.8193 53.7629C97.5812 53.6924 97.3732 53.5683 97.1954 53.3939C97.016 53.2195 96.8734 52.9897 96.7661 52.7029C96.6621 52.4178 96.6118 52.0589 96.6118 51.6296C96.6118 51.2003 96.6621 50.8431 96.7661 50.5563C96.8734 50.2661 97.016 50.033 97.1954 49.8586C97.3732 49.6842 97.5812 49.5601 97.8193 49.4829C98.0608 49.4075 98.3157 49.3689 98.5841 49.3689C98.7887 49.3689 98.9832 49.3941 99.1677 49.4427C99.3505 49.488 99.5182 49.5618 99.6708 49.6641C99.8218 49.763 99.9559 49.8921 100.073 50.0531C100.189 50.2108 100.285 50.4053 100.362 50.6368L99.5501 50.8917C99.4645 50.6016 99.3371 50.4003 99.1677 50.2879C99.0017 50.1722 98.8071 50.1135 98.5841 50.1135C98.4365 50.1135 98.2956 50.1387 98.1614 50.1873C98.0306 50.2326 97.9166 50.3131 97.8193 50.4288C97.7204 50.5412 97.6399 50.6955 97.5778 50.8917C97.5191 51.0896 97.4906 51.3344 97.4906 51.6296C97.4906 51.9248 97.5191 52.1713 97.5778 52.3675C97.6399 52.5604 97.7204 52.713 97.8193 52.8237C97.9166 52.9361 98.0306 53.0149 98.1614 53.0585C98.2956 53.1038 98.4365 53.1256 98.5841 53.1256C98.7082 53.1256 98.8272 53.1121 98.9396 53.0853C99.0503 53.0551 99.1476 53.0031 99.2281 52.931C99.3086 52.8556 99.3757 52.7533 99.4293 52.6224C99.483 52.4883 99.5132 52.3189 99.5232 52.1126H98.3493V51.3747H100.422Z" fill="#D9D9D9"/>
<path d="M104.197 50.1807V53.8099H103.318V50.1807H102.151V49.436H105.371V50.1807H104.197Z" fill="#D9D9D9"/>
<path d="M108.276 49.436L109.37 52.3273L110.463 49.436H111.382L111.617 53.8099H110.738L110.617 51.5022L109.732 53.8099H109.014L108.135 51.5022L108.015 53.8099H107.136L107.364 49.436H108.276Z" fill="#D9D9D9"/>
<path d="M117.564 52.1932V53.8099H116.686V49.436H118.108C118.618 49.436 119.003 49.5467 119.268 49.7647C119.537 49.9794 119.671 50.3081 119.671 50.7509C119.671 51.2657 119.537 51.6347 119.268 51.8577C119.003 52.0825 118.618 52.1932 118.108 52.1932H117.564ZM117.564 50.1807V51.4485H118.108C118.336 51.4485 118.505 51.4016 118.618 51.3077C118.728 51.2137 118.785 51.0293 118.785 50.7509C118.785 50.6351 118.768 50.5412 118.738 50.4691C118.711 50.3987 118.668 50.34 118.611 50.2947C118.557 50.2511 118.487 50.2209 118.403 50.2075C118.322 50.1907 118.223 50.1807 118.108 50.1807H117.564Z" fill="#D9D9D9"/>
<path d="M124.402 49.436H125.348L123.685 53.8099H122.967L121.303 49.436H122.249L123.322 52.3005L124.402 49.436Z" fill="#D9D9D9"/>
<path d="M128.956 50.1807V53.8099H128.077V50.1807H126.91V49.436H130.13V50.1807H128.956Z" fill="#D9D9D9"/>
<path d="M136 53.0652H137.784V53.8099H135.121V49.436H136V53.0652Z" fill="#D9D9D9"/>
<path d="M141.53 50.1807V53.8099H140.652V50.1807H139.484V49.436H142.704V50.1807H141.53Z" fill="#D9D9D9"/>
<path d="M144.529 53.8099V49.436H145.804C146.277 49.436 146.663 49.4863 146.958 49.5836C147.256 49.6826 147.488 49.8285 147.649 50.0197C147.81 50.2125 147.919 50.4473 147.977 50.724C148.034 51.0024 148.065 51.3144 148.065 51.6632C148.065 51.9768 148.033 52.2653 147.971 52.5286C147.912 52.7936 147.8 53.0183 147.635 53.2061C147.474 53.394 147.253 53.5415 146.971 53.6489C146.689 53.7562 146.327 53.8099 145.884 53.8099H144.529ZM145.408 50.1807V53.0652H145.905C146.181 53.0652 146.404 53.0351 146.575 52.9713C146.745 52.9042 146.874 52.8103 146.964 52.6896C147.053 52.5655 147.112 52.4179 147.139 52.2468C147.166 52.0724 147.179 51.8779 147.179 51.6632C147.179 51.4183 147.166 51.2037 147.139 51.0192C147.115 50.8314 147.058 50.6754 146.964 50.5496C146.871 50.4255 146.731 50.3333 146.549 50.2746C146.364 50.2125 146.116 50.1807 145.804 50.1807H145.408Z" fill="#D9D9D9"/>
</svg>
